<?xml version="1.0" encoding="UTF-8"?>
<svg id="Capa_1" data-name="Capa 1" xmlns="http://www.w3.org/2000/svg" version="1.1" viewBox="0 0 16 16">
  <defs>
    <style>
      .cls-1 {
        fill: #dba435;
        stroke-width: 0px;
      }
    </style>
  </defs>
  <path class="cls-1" d="M13.5,2.1c0-.5,0-1,0-1.5s-.2-.5-.5-.5H3c-.3,0-.5.2-.5.5,0,.5,0,1,0,1.5,0,0-.1,0-.2,0C.8,2.4-.2,4,.1,5.6c.4,1.6,2,2.6,3.6,2.3.8,1.9,1.9,2.8,2.8,3v2.2l-1.4.4c-.2,0-.4.1-.5.2l-1.8,1.4c-.1,0-.2.2-.2.4,0,.3.2.5.5.5h10c.2,0,.3,0,.4-.2.2-.2.1-.5,0-.7l-1.8-1.4c-.2-.1-.3-.2-.5-.2l-1.4-.4v-2.2c1-.2,2-1.1,2.8-3,0,0,.1,0,.2,0,1.6.3,3.2-.8,3.4-2.5s-.8-3.2-2.5-3.4ZM1,5.4c-.2-1.1.5-2.1,1.6-2.3h0c.1,1.6.4,2.9.7,3.9-1.1.2-2.1-.5-2.3-1.6ZM8.4,6c-.1.2-.3.3-.6.5-.3.1-.6.2-.9.2s-.6,0-.9-.1-.5-.2-.7-.3l.3-.7c.2.1.4.2.6.3.2,0,.5.1.7.1s.5,0,.6-.1.2-.2.2-.3,0-.2-.1-.2c0,0-.2-.1-.3-.2-.1,0-.3,0-.5-.1-.3,0-.6-.1-.8-.2s-.4-.2-.5-.4c-.1-.2-.2-.4-.2-.6s0-.4.2-.6c.1-.2.3-.3.6-.5.3-.1.6-.2.9-.2s.5,0,.8,0c.2,0,.5.1.6.3l-.3.7c-.4-.2-.7-.3-1.1-.3s-.5,0-.6.1c-.1,0-.2.2-.2.3s0,.2.2.3c.1,0,.4.1.7.2.3,0,.6.1.8.2.2,0,.4.2.5.3s.2.4.2.6,0,.4-.2.6ZM10.4,6.5h-.9v-3.3h-.8v-.7h1.7v4ZM15,5.4c-.2,1.1-1.2,1.8-2.3,1.6.3-1,.6-2.3.7-3.9,1.1.2,1.8,1.2,1.6,2.3Z"/>
  <path class="cls-1" d="M2.5.5s0,0,0,0c0,0,0,0,0,0h0Z"/>
</svg>