<?xml version="1.0" encoding="UTF-8"?>
<svg id="Capa_1" data-name="Capa 1" xmlns="http://www.w3.org/2000/svg" viewBox="0 0 16 16">
  <defs>
    <style>
      .cls-1 {
        fill: #dba435;
        stroke-width: 0px;
      }
    </style>
  </defs>
  <path class="cls-1" d="M2.53.53c0-.28.22-.5.5-.5h9.98c.28,0,.5.22.5.5,0,.54-.01,1.05-.03,1.53,1.63.27,2.73,1.81,2.46,3.44-.27,1.63-1.81,2.73-3.44,2.46-.05,0-.1-.02-.15-.03-.79,1.86-1.87,2.77-2.83,3v2.17l1.42.36c.19.05.38.13.54.25l1.83,1.38c.22.17.27.48.1.7-.09.13-.24.2-.4.2H3.03c-.28,0-.5-.22-.5-.5,0-.16.07-.3.2-.4l1.83-1.38c.16-.12.34-.21.54-.25l1.42-.36v-2.17c-.95-.23-2.04-1.14-2.83-3.01-1.61.36-3.21-.66-3.57-2.28-.36-1.61.66-3.21,2.28-3.57.05-.01.11-.02.16-.03-.02-.51-.04-1.02-.03-1.53M2.63,3.07c-1.08.2-1.8,1.24-1.6,2.32s1.24,1.8,2.32,1.6c-.33-1.05-.59-2.34-.72-3.93M12.69,7c1.08.2,2.12-.52,2.32-1.6.2-1.08-.52-2.12-1.6-2.32-.13,1.59-.39,2.88-.72,3.93"/>
</svg>