<?xml version="1.0" encoding="UTF-8"?>
<svg xmlns="http://www.w3.org/2000/svg" viewBox="0 0 16 16">
  <defs>
    <style>
      .cls-1 {
        fill: #e5bb5f;
        stroke-width: 0px;
      }
    </style>
  </defs>
  <g id="Capa_1" data-name="Capa 1">
    <g>
      <path class="cls-1" d="M4.91,2.26c-2.06,0-3.73,1.67-3.73,3.73v5.33c0,2.06,1.67,3.73,3.73,3.73h5.33c2.06,0,3.73-1.67,3.73-3.73v-2.67c0-.29.24-.53.53-.53s.53.24.53.53v2.67c0,2.65-2.15,4.8-4.8,4.8h-5.33C2.26,16.13.11,13.98.11,11.33v-5.33C.11,3.35,2.26,1.2,4.91,1.2h2.67c.29,0,.53.24.53.53s-.24.53-.53.53h-2.67Z"/>
      <path class="cls-1" d="M16.11,3.33c0,1.77-1.43,3.2-3.2,3.2s-3.2-1.43-3.2-3.2S11.14.13,12.91.13s3.2,1.43,3.2,3.2"/>
    </g>
  </g>
  <g id="textos-editables">
    <g>
      <path class="cls-1" d="M2.27,9.94c0-.43.08-.81.25-1.14.16-.34.4-.59.71-.78.31-.18.67-.28,1.08-.28.58,0,1.06.18,1.43.53s.57.84.62,1.45v.3c0,.66-.18,1.19-.55,1.59-.37.4-.86.6-1.49.6s-1.12-.2-1.49-.6c-.37-.4-.56-.94-.56-1.63v-.05ZM3.42,10.03c0,.41.08.72.23.94s.37.33.66.33.5-.11.65-.32c.16-.21.24-.56.24-1.03,0-.4-.08-.71-.24-.93-.16-.22-.38-.33-.66-.33s-.5.11-.65.33c-.15.22-.23.56-.23,1.02Z"/>
      <path class="cls-1" d="M7.06,6.71c0-.17.06-.31.17-.43.12-.11.27-.17.47-.17s.35.06.47.17c.12.11.18.25.18.43s-.06.32-.18.43c-.12.11-.27.17-.47.17s-.35-.06-.47-.17c-.12-.11-.18-.26-.18-.43ZM8.28,12.14h-1.16v-4.31h1.16v4.31Z"/>
      <path class="cls-1" d="M11.02,11.29c.21,0,.39-.06.52-.18.13-.12.2-.27.21-.47h1.08c0,.29-.08.56-.24.8-.16.24-.37.43-.64.57-.27.13-.57.2-.9.2-.62,0-1.1-.2-1.46-.59s-.53-.93-.53-1.62v-.08c0-.66.18-1.2.53-1.59.35-.4.84-.59,1.45-.59.54,0,.97.15,1.3.46.33.31.49.72.5,1.23h-1.08c0-.22-.07-.41-.21-.55-.13-.14-.31-.21-.53-.21-.27,0-.47.1-.61.29-.14.2-.21.51-.21.95v.12c0,.44.07.76.2.96.14.19.34.29.62.29Z"/>
    </g>
  </g>
</svg>