<?xml version="1.0" encoding="UTF-8"?>
<svg xmlns="http://www.w3.org/2000/svg" viewBox="0 0 16 16">
  <defs>
    <style>
      .cls-1 {
        fill: #9085da;
        stroke-width: 0px;
      }
    </style>
  </defs>
  <g id="Capa_1" data-name="Capa 1">
    <g>
      <path class="cls-1" d="M4.91,2.26c-2.06,0-3.73,1.67-3.73,3.73v5.33c0,2.06,1.67,3.73,3.73,3.73h5.33c2.06,0,3.73-1.67,3.73-3.73v-2.67c0-.29.24-.53.53-.53s.53.24.53.53v2.67c0,2.65-2.15,4.8-4.8,4.8h-5.33C2.26,16.13.11,13.98.11,11.33v-5.33C.11,3.35,2.26,1.2,4.91,1.2h2.67c.29,0,.53.24.53.53s-.24.53-.53.53h-2.67Z"/>
      <path class="cls-1" d="M16.11,3.33c0,1.77-1.43,3.2-3.2,3.2s-3.2-1.43-3.2-3.2S11.14.13,12.91.13s3.2,1.43,3.2,3.2"/>
    </g>
  </g>
  <g id="textos-editables">
    <g>
      <path class="cls-1" d="M6.03,8.22v.89h.62v.71h-.62v1.81c0,.13.03.23.08.29.05.06.15.09.29.09.11,0,.2,0,.28-.02v.73c-.19.06-.39.09-.59.09-.68,0-1.02-.34-1.04-1.03v-1.95h-.53v-.71h.53v-.89h.97Z"/>
      <path class="cls-1" d="M8.21,9.11v3.82c0,.4-.11.71-.32.93s-.52.33-.92.33c-.17,0-.33-.02-.48-.06v-.77c.12.02.22.03.3.03.29,0,.44-.15.44-.47v-3.83h.97ZM7.17,8.17c0-.15.05-.26.15-.36.1-.09.23-.14.4-.14s.3.05.4.14c.1.09.15.21.15.36s-.05.27-.15.36c-.1.09-.23.14-.39.14s-.29-.05-.39-.14c-.1-.09-.15-.21-.15-.36Z"/>
      <path class="cls-1" d="M11.07,12.73c-.04-.09-.08-.2-.1-.32-.23.26-.54.39-.91.39-.35,0-.65-.1-.88-.31-.23-.21-.35-.46-.35-.78,0-.38.14-.68.43-.88.28-.21.7-.31,1.23-.31h.45v-.21c0-.17-.04-.3-.13-.4-.09-.1-.22-.15-.41-.15-.16,0-.29.04-.38.12s-.14.19-.14.32h-.97c0-.21.06-.4.19-.58.13-.18.31-.32.55-.42.24-.1.5-.15.8-.15.45,0,.8.11,1.06.34.26.22.39.54.39.95v1.57c0,.34.05.6.14.78v.06h-.98ZM10.27,12.06c.14,0,.27-.03.4-.1.12-.06.21-.15.27-.26v-.62h-.36c-.48,0-.74.17-.77.5v.06c0,.12.04.22.12.3.08.08.2.12.35.12Z"/>
    </g>
    <g>
      <path class="cls-1" d="M5.08,5.25c0-.13-.04-.22-.13-.29s-.25-.14-.48-.21c-.23-.07-.41-.15-.55-.22-.37-.2-.55-.47-.55-.8,0-.17.05-.33.15-.47.1-.14.24-.24.42-.32.18-.08.39-.12.62-.12s.44.04.62.13c.18.08.32.2.42.35.1.15.15.33.15.52h-.67c0-.15-.05-.26-.14-.35-.09-.08-.22-.12-.39-.12s-.29.03-.38.1c-.09.07-.14.16-.14.27,0,.11.05.19.16.26s.26.14.47.2c.38.11.66.26.83.42s.26.38.26.63c0,.28-.11.5-.32.66-.21.16-.5.24-.86.24-.25,0-.48-.05-.68-.14-.2-.09-.36-.22-.47-.37s-.16-.34-.16-.55h.67c0,.36.21.54.64.54.16,0,.28-.03.37-.1s.13-.15.13-.27Z"/>
      <path class="cls-1" d="M6.78,4.2h.34c.16,0,.28-.04.36-.12s.12-.19.12-.32-.04-.23-.12-.3c-.08-.07-.18-.11-.32-.11-.12,0-.23.03-.31.1s-.12.16-.12.26h-.64c0-.17.05-.32.14-.45.09-.13.22-.24.38-.31.16-.08.34-.11.54-.11.34,0,.61.08.8.25.19.16.29.39.29.68,0,.15-.05.28-.14.41s-.21.22-.36.29c.18.06.32.16.41.29.09.13.13.28.13.46,0,.29-.1.52-.31.69-.21.17-.49.26-.83.26-.32,0-.59-.08-.79-.26-.21-.17-.31-.4-.31-.68h.64c0,.12.05.22.14.3.09.08.2.12.34.12.15,0,.27-.04.36-.12.09-.08.13-.19.13-.32,0-.32-.18-.48-.53-.48h-.34v-.5Z"/>
    </g>
  </g>
</svg>