<?xml version="1.0" encoding="UTF-8"?>
<svg id="Capa_1" data-name="Capa 1" xmlns="http://www.w3.org/2000/svg" viewBox="0 0 16 16">
  <defs>
    <style>
      .cls-1 {
        fill: #6e4066;
      }

      .cls-1, .cls-2 {
        stroke-width: 0px;
      }

      .cls-2 {
        fill: #6f4168;
      }
    </style>
  </defs>
  <path class="cls-2" d="M4.8,2.13c-2.06,0-3.73,1.67-3.73,3.73v5.33c0,2.06,1.67,3.73,3.73,3.73h5.33c2.06,0,3.73-1.67,3.73-3.73v-2.67c0-.29.24-.53.53-.53s.53.24.53.53v2.67c0,2.65-2.15,4.8-4.8,4.8h-5.33C2.15,16,0,13.85,0,11.2v-5.33C0,3.22,2.15,1.07,4.8,1.07h2.67c.29,0,.53.24.53.53s-.24.53-.53.53h-2.67Z"/>
  <path class="cls-2" d="M16,3.2c0,1.77-1.43,3.2-3.2,3.2s-3.2-1.43-3.2-3.2,1.43-3.2,3.2-3.2,3.2,1.43,3.2,3.2"/>
  <path class="cls-1" d="M7.99,7.43v5.35h-1.4v-5.35h-1.6v-1.19h4.6v1.19h-1.6Z"/>
</svg>