<?xml version="1.0" encoding="UTF-8"?>
<svg xmlns="http://www.w3.org/2000/svg" viewBox="0 0 16 16">
  <defs>
    <style>
      .cls-1 {
        fill: #6f4168;
        stroke-width: 0px;
      }
    </style>
  </defs>
  <g id="Capa_1" data-name="Capa 1">
    <g>
      <path class="cls-1" d="M6.25,11.25c0-.19-.07-.34-.2-.44s-.38-.21-.72-.32c-.35-.11-.62-.22-.83-.33-.55-.3-.83-.7-.83-1.21,0-.26.07-.5.22-.71.15-.21.36-.37.64-.48.28-.12.59-.17.94-.17s.66.06.93.19c.27.13.48.3.63.53.15.23.23.49.23.78h-1c0-.22-.07-.4-.21-.52-.14-.12-.34-.19-.59-.19s-.44.05-.57.16c-.14.1-.2.24-.2.41,0,.16.08.29.24.4.16.11.39.21.71.3.57.17.99.38,1.25.64.26.25.39.57.39.95,0,.42-.16.75-.48.99s-.75.36-1.29.36c-.38,0-.72-.07-1.02-.21-.31-.14-.54-.33-.71-.56-.16-.24-.24-.52-.24-.83h1.01c0,.54.32.81.96.81.24,0,.43-.05.56-.15s.2-.23.2-.41Z"/>
      <path class="cls-1" d="M11.95,10.21c0,.48-.08.9-.25,1.26-.17.36-.41.64-.73.84s-.68.29-1.09.29-.76-.1-1.08-.29c-.32-.19-.56-.47-.74-.83-.17-.36-.26-.78-.26-1.24v-.24c0-.48.09-.9.26-1.27s.42-.65.73-.84.68-.29,1.08-.29.77.1,1.08.29.56.48.73.84.26.79.26,1.26v.22ZM10.93,9.99c0-.51-.09-.9-.27-1.17-.18-.27-.44-.4-.78-.4s-.6.13-.78.39c-.18.26-.28.65-.28,1.15v.24c0,.5.09.88.27,1.16.18.27.45.41.79.41s.6-.13.78-.4c.18-.26.27-.65.27-1.16v-.24Z"/>
    </g>
  </g>
  <g id="textos-editables">
    <g>
      <path class="cls-1" d="M4.8,2.13c-2.06,0-3.73,1.67-3.73,3.73v5.33c0,2.06,1.67,3.73,3.73,3.73h5.33c2.06,0,3.73-1.67,3.73-3.73v-2.67c0-.29.24-.53.53-.53s.53.24.53.53v2.67c0,2.65-2.15,4.8-4.8,4.8h-5.33c-2.65,0-4.8-2.15-4.8-4.8v-5.33C0,3.22,2.15,1.07,4.8,1.07h2.67c.29,0,.53.24.53.53s-.24.53-.53.53h-2.67Z"/>
      <path class="cls-1" d="M16,3.2c0,1.77-1.43,3.2-3.2,3.2s-3.2-1.43-3.2-3.2,1.43-3.2,3.2-3.2,3.2,1.43,3.2,3.2"/>
    </g>
  </g>
</svg>